<svg id="visual" viewBox="0 0 900 600" width="900" height="600" xmlns="http://www.w3.org/2000/svg" xmlns:xlink="http://www.w3.org/1999/xlink" version="1.1"><rect x="0" y="0" width="900" height="600" fill="#FDE2F3"></rect><path d="M0 481L21.5 477.3C43 473.7 86 466.3 128.8 467.2C171.7 468 214.3 477 257.2 476.2C300 475.3 343 464.7 385.8 464.2C428.7 463.7 471.3 473.3 514.2 482.3C557 491.3 600 499.7 642.8 501.7C685.7 503.7 728.3 499.3 771.2 496.7C814 494 857 493 878.5 492.5L900 492L900 601L878.5 601C857 601 814 601 771.2 601C728.3 601 685.7 601 642.8 601C600 601 557 601 514.2 601C471.3 601 428.7 601 385.8 601C343 601 300 601 257.2 601C214.3 601 171.7 601 128.8 601C86 601 43 601 21.5 601L0 601Z" fill="#e5beec"></path><path d="M0 477L21.5 478.5C43 480 86 483 128.8 486.2C171.7 489.3 214.3 492.7 257.2 497.7C300 502.7 343 509.3 385.8 511.7C428.7 514 471.3 512 514.2 511.3C557 510.7 600 511.3 642.8 507.8C685.7 504.3 728.3 496.7 771.2 498C814 499.3 857 509.7 878.5 514.8L900 520L900 601L878.5 601C857 601 814 601 771.2 601C728.3 601 685.7 601 642.8 601C600 601 557 601 514.2 601C471.3 601 428.7 601 385.8 601C343 601 300 601 257.2 601C214.3 601 171.7 601 128.8 601C86 601 43 601 21.5 601L0 601Z" fill="#d0aedd"></path><path d="M0 511L21.5 514.7C43 518.3 86 525.7 128.8 529C171.7 532.3 214.3 531.7 257.2 533C300 534.3 343 537.7 385.8 538.7C428.7 539.7 471.3 538.3 514.2 533.8C557 529.3 600 521.7 642.8 522.3C685.7 523 728.3 532 771.2 532.7C814 533.3 857 525.7 878.5 521.8L900 518L900 601L878.5 601C857 601 814 601 771.2 601C728.3 601 685.7 601 642.8 601C600 601 557 601 514.2 601C471.3 601 428.7 601 385.8 601C343 601 300 601 257.2 601C214.3 601 171.7 601 128.8 601C86 601 43 601 21.5 601L0 601Z" fill="#bb9ecf"></path><path d="M0 557L21.5 553.8C43 550.7 86 544.3 128.8 540C171.7 535.7 214.3 533.3 257.2 535.3C300 537.3 343 543.7 385.8 544C428.7 544.3 471.3 538.7 514.2 535C557 531.3 600 529.7 642.8 534.5C685.7 539.3 728.3 550.7 771.2 555.3C814 560 857 558 878.5 557L900 556L900 601L878.5 601C857 601 814 601 771.2 601C728.3 601 685.7 601 642.8 601C600 601 557 601 514.2 601C471.3 601 428.7 601 385.8 601C343 601 300 601 257.2 601C214.3 601 171.7 601 128.8 601C86 601 43 601 21.5 601L0 601Z" fill="#a68ec1"></path><path d="M0 568L21.5 566.5C43 565 86 562 128.8 562.7C171.7 563.3 214.3 567.7 257.2 571C300 574.3 343 576.7 385.8 574C428.7 571.3 471.3 563.7 514.2 563.5C557 563.3 600 570.7 642.8 573.5C685.7 576.3 728.3 574.7 771.2 571.7C814 568.7 857 564.3 878.5 562.2L900 560L900 601L878.5 601C857 601 814 601 771.2 601C728.3 601 685.7 601 642.8 601C600 601 557 601 514.2 601C471.3 601 428.7 601 385.8 601C343 601 300 601 257.2 601C214.3 601 171.7 601 128.8 601C86 601 43 601 21.5 601L0 601Z" fill="#917fb3"></path></svg>